# xmcd
#
# Track frame offsets:
#	150
#	18201
#	38260
#	54449
#	76968
#	95457
#	113796
#	131754
#	152890
#	173503
#	192907
#	208567
#	232936
#	252779
#	276680
#	308555
#	326562
#
# Disc length: 4498 seconds
#
# Revision: 0
# Processed by: cddbd v1.5.1PL2 Copyright (c) Steve Scherf et al.
# Submitted via: EasyCDDAExtractor 8.1.2.3
#
DISCID=d5119011
DTITLE=Sinik - Sang froid
DYEAR=2006
DGENRE=Rap
TTITLE0=Dans Le Vif
TTITLE1=Autodestruction
TTITLE2=Sarkozic
TTITLE3=Descente Aux Enfers
TTITLE4=Un Monde Meilleur Feat. Tunisi
TTITLE5=Mon Pire Ennemi
TTITLE6=Ne Dis Jamais Feat. Vitaa
TTITLE7=Precieuse
TTITLE8=Rien N'a Change Feat. Kayna Sa
TTITLE9=Bonhomme
TTITLE10=Il Faut Toujours Un Drame
TTITLE11=La Cite Des Anges
TTITLE12=Si Proche Des Miens Feat. Kool
TTITLE13=Demence
TTITLE14=Zone Interdite
TTITLE15=Mon Pire Ennemi (Remix)
TTITLE16=Le Mot De La Fin
EXTD=
EXTT0=
EXTT1=
EXTT2=
EXTT3=
EXTT4=
EXTT5=
EXTT6=
EXTT7=
EXTT8=
EXTT9=
EXTT10=
EXTT11=
EXTT12=
EXTT13=
EXTT14=
EXTT15=
EXTT16=
PLAYORDER=
